<?xml version="1.0" encoding="UTF-8" standalone="no"?>
<!DOCTYPE svg PUBLIC "-//W3C//DTD SVG 1.1//EN" "http://www.w3.org/Graphics/SVG/1.1/DTD/svg11.dtd">
<svg width="100%" height="100%" viewBox="0 0 4000 4000" version="1.1" xmlns="http://www.w3.org/2000/svg" xmlns:xlink="http://www.w3.org/1999/xlink" xml:space="preserve" xmlns:serif="http://www.serif.com/" style="fill-rule:evenodd;clip-rule:evenodd;stroke-linejoin:round;stroke-miterlimit:2;">
    <path d="M2000,500C2827.873,500 3500,1172.127 3500,2000C3500,2827.873 2827.873,3500 2000,3500C1172.127,3500 500,2827.873 500,2000C500,1172.127 1172.127,500 2000,500ZM3250,2000C3250,1655.053 2969.947,1375 2625,1375C2280.053,1375 2000,1655.053 2000,2000C2000,1655.053 1719.947,1375 1375,1375C1030.053,1375 750,1655.053 750,2000C750,2689.894 1310.106,3250 2000,3250C2689.894,3250 3250,2689.894 3250,2000Z"/>
</svg>
